<?xml version="1.0" encoding="utf-8"?>
<!-- Generator: Adobe Illustrator 20.0.0, SVG Export Plug-In . SVG Version: 6.00 Build 0)  -->
<svg version="1.1" xmlns="http://www.w3.org/2000/svg" xmlns:xlink="http://www.w3.org/1999/xlink" x="0px" y="0px"
	 viewBox="0 0 366 348" enable-background="new 0 0 366 348" xml:space="preserve">
<g id="Layer_1">
</g>
<g id="Isolation_Mode">
	<path fill="#FFFFFF" d="M281.9,52.8L105.6,0L0,158.4l65,182.8l177.4,6.7L366,218.8L281.9,52.8z M331.6,170.2l-57-89l4-15.4
		L331.6,170.2z M238.4,336.7L50.3,186.9L269.7,85.2L238.4,336.7z M270.9,78.4l-121-56.1L275.7,60L270.9,78.4z M109.3,10.2l11.2,3.4
		l146.6,67.9L50,182.2L106.8,14L109.3,10.2z M45.2,183L9.7,159.6L97.4,28L45.2,183z M44.3,187.6l16.9,116.9L12.1,166.4L44.3,187.6z
		 M68.7,325.5L49.3,191.7l184.9,147.2l-162.9-6.2L68.7,325.5z M243.1,334.7l30.7-246.9l77.7,121.4l4,8L243.1,334.7z"/>
</g>
</svg>
